<?xml version="1.0" encoding="UTF-8" standalone="no"?>
<!-- Uploaded to: SVG Repo, www.svgrepo.com, Generator: SVG Repo Mixer Tools -->

<svg
   fill="#000000"
   width="800px"
   height="800px"
   viewBox="0 0 200 200"
   data-name="Layer 1"
   id="Layer_1"
   version="1.1"
   sodipodi:docname="storage-cloud-data-document-paper-extension-page-svgrepo-com.svg"
   inkscape:version="1.2.2 (b0a8486541, 2022-12-01)"
   xmlns:inkscape="http://www.inkscape.org/namespaces/inkscape"
   xmlns:sodipodi="http://sodipodi.sourceforge.net/DTD/sodipodi-0.dtd"
   xmlns="http://www.w3.org/2000/svg"
   xmlns:svg="http://www.w3.org/2000/svg">
  <defs
     id="defs9" />
  <sodipodi:namedview
     id="namedview7"
     pagecolor="#ffffff"
     bordercolor="#111111"
     borderopacity="1"
     inkscape:showpageshadow="0"
     inkscape:pageopacity="0"
     inkscape:pagecheckerboard="1"
     inkscape:deskcolor="#d1d1d1"
     showgrid="false"
     inkscape:zoom="1.03375"
     inkscape:cx="400"
     inkscape:cy="400.96735"
     inkscape:window-width="1920"
     inkscape:window-height="1008"
     inkscape:window-x="0"
     inkscape:window-y="0"
     inkscape:window-maximized="1"
     inkscape:current-layer="Layer_1" />
  <title
     id="title2" />
  <path
     d="M171,51,148.5,28.5a29.47,29.47,0,0,0-21-8.5H50A30.09,30.09,0,0,0,20,50V150a30.09,30.09,0,0,0,30,30H150a30.09,30.09,0,0,0,30-30V72.5A29.89,29.89,0,0,0,171,51ZM120,40V50H80V40ZM80,160V125h40v35Zm80-10a10,10,0,0,1-10,10H140V125a20.06,20.06,0,0,0-20-20H80a20.06,20.06,0,0,0-20,20v35H50a10,10,0,0,1-10-10V50A10,10,0,0,1,50,40H60V50A20.06,20.06,0,0,0,80,70h40a20.06,20.06,0,0,0,20-20V48.5l17,17a9.87,9.87,0,0,1,3,7V150Z"
     id="path4"
     style="fill:#ffffff" />
</svg>
